<mxfile host="app.diagrams.net" modified="2021-07-14T03:16:17.678Z" agent="5.0 (Macintosh; Intel Mac OS X 10_15_7) AppleWebKit/537.36 (KHTML, like Gecko) Chrome/91.0.4472.114 Safari/537.36" etag="_gtfemBtiSvJ0zVMsSMg" version="14.8.6" type="github">
  <diagram name="Page-1" id="74e2e168-ea6b-b213-b513-2b3c1d86103e">
    <mxGraphModel dx="1611" dy="1794" grid="1" gridSize="10" guides="1" tooltips="1" connect="1" arrows="1" fold="1" page="1" pageScale="1" pageWidth="1100" pageHeight="850" background="none" math="0" shadow="0">
      <root>
        <mxCell id="0" />
        <mxCell id="1" parent="0" />
        <mxCell id="77e6c97f196da883-1" value="Pool" style="swimlane;html=1;childLayout=stackLayout;startSize=20;rounded=0;shadow=0;labelBackgroundColor=none;strokeWidth=1;fontFamily=Verdana;fontSize=8;align=center;" parent="1" vertex="1">
          <mxGeometry x="70" y="-60" width="800" height="2850" as="geometry" />
        </mxCell>
        <mxCell id="77e6c97f196da883-26" style="edgeStyle=orthogonalEdgeStyle;rounded=1;html=1;labelBackgroundColor=none;startArrow=none;startFill=0;startSize=5;endArrow=classicThin;endFill=1;endSize=5;jettySize=auto;orthogonalLoop=1;strokeWidth=1;fontFamily=Verdana;fontSize=8" parent="77e6c97f196da883-1" source="77e6c97f196da883-8" target="77e6c97f196da883-11" edge="1">
          <mxGeometry relative="1" as="geometry" />
        </mxCell>
        <mxCell id="77e6c97f196da883-2" value="appserver" style="swimlane;html=1;startSize=20;" parent="77e6c97f196da883-1" vertex="1">
          <mxGeometry y="20" width="160" height="2830" as="geometry" />
        </mxCell>
        <mxCell id="77e6c97f196da883-8" value="初始化" style="rounded=1;whiteSpace=wrap;html=1;shadow=0;labelBackgroundColor=none;strokeWidth=1;fontFamily=Verdana;fontSize=8;align=center;" parent="77e6c97f196da883-2" vertex="1">
          <mxGeometry x="20" y="61" width="100" height="60" as="geometry" />
        </mxCell>
        <mxCell id="77e6c97f196da883-3" value="lippi-video-adapter" style="swimlane;html=1;startSize=20;" parent="77e6c97f196da883-1" vertex="1">
          <mxGeometry x="160" y="20" width="160" height="2830" as="geometry" />
        </mxCell>
        <mxCell id="77e6c97f196da883-11" value="InitRecordTask" style="rounded=1;whiteSpace=wrap;html=1;shadow=0;labelBackgroundColor=none;strokeWidth=1;fontFamily=Verdana;fontSize=8;align=center;" parent="77e6c97f196da883-3" vertex="1">
          <mxGeometry x="30" y="61" width="100" height="60" as="geometry" />
        </mxCell>
        <mxCell id="JTh4NQwazE_CQNcOJ4YT-9" value="UpdateRecordTask" style="rounded=1;whiteSpace=wrap;html=1;shadow=0;labelBackgroundColor=none;strokeWidth=1;fontFamily=Verdana;fontSize=8;align=center;" vertex="1" parent="77e6c97f196da883-3">
          <mxGeometry x="30" y="180" width="100" height="60" as="geometry" />
        </mxCell>
        <mxCell id="JTh4NQwazE_CQNcOJ4YT-72" value="" style="edgeStyle=orthogonalEdgeStyle;rounded=0;orthogonalLoop=1;jettySize=auto;html=1;entryX=0;entryY=0.5;entryDx=0;entryDy=0;" edge="1" parent="77e6c97f196da883-1" source="JTh4NQwazE_CQNcOJ4YT-13" target="JTh4NQwazE_CQNcOJ4YT-5">
          <mxGeometry relative="1" as="geometry">
            <mxPoint x="530" y="455" as="targetPoint" />
          </mxGeometry>
        </mxCell>
        <mxCell id="77e6c97f196da883-4" value="db" style="swimlane;html=1;startSize=20;" parent="77e6c97f196da883-1" vertex="1">
          <mxGeometry x="320" y="20" width="160" height="2830" as="geometry" />
        </mxCell>
        <mxCell id="JTh4NQwazE_CQNcOJ4YT-1" value="InsertTask" style="rounded=1;whiteSpace=wrap;html=1;shadow=0;labelBackgroundColor=none;strokeWidth=1;fontFamily=Verdana;fontSize=8;align=center;" vertex="1" parent="77e6c97f196da883-4">
          <mxGeometry x="30" y="61" width="100" height="60" as="geometry" />
        </mxCell>
        <mxCell id="JTh4NQwazE_CQNcOJ4YT-13" value="UpdateTask" style="rounded=1;whiteSpace=wrap;html=1;shadow=0;labelBackgroundColor=none;strokeWidth=1;fontFamily=Verdana;fontSize=8;align=center;" vertex="1" parent="77e6c97f196da883-4">
          <mxGeometry x="30" y="405" width="100" height="60" as="geometry" />
        </mxCell>
        <mxCell id="77e6c97f196da883-5" value="eci" style="swimlane;html=1;startSize=20;" parent="77e6c97f196da883-1" vertex="1">
          <mxGeometry x="480" y="20" width="160" height="2830" as="geometry" />
        </mxCell>
        <mxCell id="JTh4NQwazE_CQNcOJ4YT-4" value="CreateEci" style="rounded=1;whiteSpace=wrap;html=1;shadow=0;labelBackgroundColor=none;strokeWidth=1;fontFamily=Verdana;fontSize=8;align=center;" vertex="1" parent="77e6c97f196da883-5">
          <mxGeometry x="30" y="60" width="100" height="60" as="geometry" />
        </mxCell>
        <mxCell id="JTh4NQwazE_CQNcOJ4YT-65" value="DescribeEci" style="rounded=1;whiteSpace=wrap;html=1;shadow=0;labelBackgroundColor=none;strokeWidth=1;fontFamily=Verdana;fontSize=8;align=center;" vertex="1" parent="77e6c97f196da883-5">
          <mxGeometry x="30" y="290" width="100" height="60" as="geometry" />
        </mxCell>
        <mxCell id="77e6c97f196da883-6" value="inner-recorder" style="swimlane;html=1;startSize=20;" parent="77e6c97f196da883-1" vertex="1">
          <mxGeometry x="640" y="20" width="160" height="2830" as="geometry" />
        </mxCell>
        <mxCell id="JTh4NQwazE_CQNcOJ4YT-5" value="PreparePage" style="rounded=1;whiteSpace=wrap;html=1;shadow=0;labelBackgroundColor=none;strokeWidth=1;fontFamily=Verdana;fontSize=8;align=center;" vertex="1" parent="77e6c97f196da883-6">
          <mxGeometry x="40" y="405" width="100" height="60" as="geometry" />
        </mxCell>
        <mxCell id="JTh4NQwazE_CQNcOJ4YT-21" value="StartRecordPage" style="rounded=1;whiteSpace=wrap;html=1;shadow=0;labelBackgroundColor=none;strokeWidth=1;fontFamily=Verdana;fontSize=8;align=center;" vertex="1" parent="77e6c97f196da883-6">
          <mxGeometry x="40" y="520" width="100" height="60" as="geometry" />
        </mxCell>
        <mxCell id="JTh4NQwazE_CQNcOJ4YT-2" value="" style="edgeStyle=orthogonalEdgeStyle;rounded=0;orthogonalLoop=1;jettySize=auto;html=1;" edge="1" parent="77e6c97f196da883-1" source="77e6c97f196da883-11" target="JTh4NQwazE_CQNcOJ4YT-1">
          <mxGeometry relative="1" as="geometry" />
        </mxCell>
        <mxCell id="JTh4NQwazE_CQNcOJ4YT-3" value="" style="edgeStyle=orthogonalEdgeStyle;rounded=0;orthogonalLoop=1;jettySize=auto;html=1;entryX=0;entryY=0.5;entryDx=0;entryDy=0;" edge="1" parent="77e6c97f196da883-1" source="77e6c97f196da883-11" target="JTh4NQwazE_CQNcOJ4YT-4">
          <mxGeometry relative="1" as="geometry">
            <mxPoint x="540" y="140" as="targetPoint" />
            <Array as="points">
              <mxPoint x="240" y="160" />
              <mxPoint x="490" y="160" />
              <mxPoint x="490" y="110" />
            </Array>
          </mxGeometry>
        </mxCell>
        <mxCell id="JTh4NQwazE_CQNcOJ4YT-8" value="" style="edgeStyle=orthogonalEdgeStyle;rounded=0;orthogonalLoop=1;jettySize=auto;html=1;" edge="1" parent="77e6c97f196da883-1" source="JTh4NQwazE_CQNcOJ4YT-4">
          <mxGeometry relative="1" as="geometry">
            <mxPoint x="290" y="230" as="targetPoint" />
            <Array as="points">
              <mxPoint x="560" y="230" />
            </Array>
          </mxGeometry>
        </mxCell>
        <mxCell id="JTh4NQwazE_CQNcOJ4YT-66" value="" style="edgeStyle=orthogonalEdgeStyle;rounded=0;orthogonalLoop=1;jettySize=auto;html=1;exitX=0.5;exitY=1;exitDx=0;exitDy=0;" edge="1" parent="77e6c97f196da883-1" source="JTh4NQwazE_CQNcOJ4YT-9" target="JTh4NQwazE_CQNcOJ4YT-65">
          <mxGeometry relative="1" as="geometry" />
        </mxCell>
        <mxCell id="JTh4NQwazE_CQNcOJ4YT-70" value="" style="edgeStyle=orthogonalEdgeStyle;rounded=0;orthogonalLoop=1;jettySize=auto;html=1;" edge="1" parent="1" source="JTh4NQwazE_CQNcOJ4YT-10" target="JTh4NQwazE_CQNcOJ4YT-13">
          <mxGeometry relative="1" as="geometry" />
        </mxCell>
        <mxCell id="JTh4NQwazE_CQNcOJ4YT-10" value="UpdateRecordTask" style="rounded=1;whiteSpace=wrap;html=1;shadow=0;labelBackgroundColor=none;strokeWidth=1;fontFamily=Verdana;fontSize=8;align=center;" vertex="1" parent="1">
          <mxGeometry x="260" y="365" width="100" height="60" as="geometry" />
        </mxCell>
        <mxCell id="JTh4NQwazE_CQNcOJ4YT-15" value="开始录制" style="rounded=1;whiteSpace=wrap;html=1;shadow=0;labelBackgroundColor=none;strokeWidth=1;fontFamily=Verdana;fontSize=8;align=center;" vertex="1" parent="1">
          <mxGeometry x="90" y="480" width="100" height="60" as="geometry" />
        </mxCell>
        <mxCell id="JTh4NQwazE_CQNcOJ4YT-16" style="edgeStyle=orthogonalEdgeStyle;rounded=1;html=1;labelBackgroundColor=none;startArrow=none;startFill=0;startSize=5;endArrow=classicThin;endFill=1;endSize=5;jettySize=auto;orthogonalLoop=1;strokeWidth=1;fontFamily=Verdana;fontSize=8" edge="1" parent="1" source="JTh4NQwazE_CQNcOJ4YT-15" target="JTh4NQwazE_CQNcOJ4YT-17">
          <mxGeometry relative="1" as="geometry" />
        </mxCell>
        <mxCell id="JTh4NQwazE_CQNcOJ4YT-17" value="CreateRecordTask" style="rounded=1;whiteSpace=wrap;html=1;shadow=0;labelBackgroundColor=none;strokeWidth=1;fontFamily=Verdana;fontSize=8;align=center;" vertex="1" parent="1">
          <mxGeometry x="260" y="480" width="100" height="60" as="geometry" />
        </mxCell>
        <mxCell id="JTh4NQwazE_CQNcOJ4YT-30" value="" style="edgeStyle=orthogonalEdgeStyle;rounded=0;orthogonalLoop=1;jettySize=auto;html=1;" edge="1" parent="1" source="JTh4NQwazE_CQNcOJ4YT-18" target="JTh4NQwazE_CQNcOJ4YT-20">
          <mxGeometry relative="1" as="geometry" />
        </mxCell>
        <mxCell id="JTh4NQwazE_CQNcOJ4YT-18" value="SelectTask" style="rounded=1;whiteSpace=wrap;html=1;shadow=0;labelBackgroundColor=none;strokeWidth=1;fontFamily=Verdana;fontSize=8;align=center;" vertex="1" parent="1">
          <mxGeometry x="420" y="480" width="100" height="60" as="geometry" />
        </mxCell>
        <mxCell id="JTh4NQwazE_CQNcOJ4YT-19" value="UpdateTask" style="rounded=1;whiteSpace=wrap;html=1;shadow=0;labelBackgroundColor=none;strokeWidth=1;fontFamily=Verdana;fontSize=8;align=center;" vertex="1" parent="1">
          <mxGeometry x="420" y="680" width="100" height="60" as="geometry" />
        </mxCell>
        <mxCell id="JTh4NQwazE_CQNcOJ4YT-31" value="" style="edgeStyle=orthogonalEdgeStyle;rounded=0;orthogonalLoop=1;jettySize=auto;html=1;" edge="1" parent="1" source="JTh4NQwazE_CQNcOJ4YT-20" target="JTh4NQwazE_CQNcOJ4YT-21">
          <mxGeometry relative="1" as="geometry" />
        </mxCell>
        <mxCell id="JTh4NQwazE_CQNcOJ4YT-20" value="Eci-Eip" style="rounded=1;whiteSpace=wrap;html=1;shadow=0;labelBackgroundColor=none;strokeWidth=1;fontFamily=Verdana;fontSize=8;align=center;" vertex="1" parent="1">
          <mxGeometry x="580" y="480" width="100" height="60" as="geometry" />
        </mxCell>
        <mxCell id="JTh4NQwazE_CQNcOJ4YT-22" value="" style="edgeStyle=orthogonalEdgeStyle;rounded=0;orthogonalLoop=1;jettySize=auto;html=1;" edge="1" parent="1" source="JTh4NQwazE_CQNcOJ4YT-17" target="JTh4NQwazE_CQNcOJ4YT-18">
          <mxGeometry relative="1" as="geometry" />
        </mxCell>
        <mxCell id="JTh4NQwazE_CQNcOJ4YT-35" value="" style="edgeStyle=orthogonalEdgeStyle;rounded=0;orthogonalLoop=1;jettySize=auto;html=1;entryX=0;entryY=0.5;entryDx=0;entryDy=0;" edge="1" parent="1" source="JTh4NQwazE_CQNcOJ4YT-24" target="JTh4NQwazE_CQNcOJ4YT-19">
          <mxGeometry relative="1" as="geometry">
            <mxPoint x="310" y="739" as="targetPoint" />
            <Array as="points">
              <mxPoint x="310" y="710" />
            </Array>
          </mxGeometry>
        </mxCell>
        <mxCell id="JTh4NQwazE_CQNcOJ4YT-24" value="UpdateRecordTask" style="rounded=1;whiteSpace=wrap;html=1;shadow=0;labelBackgroundColor=none;strokeWidth=1;fontFamily=Verdana;fontSize=8;align=center;" vertex="1" parent="1">
          <mxGeometry x="260" y="599" width="100" height="60" as="geometry" />
        </mxCell>
        <mxCell id="JTh4NQwazE_CQNcOJ4YT-29" value="" style="edgeStyle=orthogonalEdgeStyle;rounded=0;orthogonalLoop=1;jettySize=auto;html=1;entryX=1;entryY=0.5;entryDx=0;entryDy=0;" edge="1" parent="1" source="JTh4NQwazE_CQNcOJ4YT-21" target="JTh4NQwazE_CQNcOJ4YT-24">
          <mxGeometry relative="1" as="geometry">
            <Array as="points">
              <mxPoint x="800" y="629" />
            </Array>
          </mxGeometry>
        </mxCell>
        <mxCell id="JTh4NQwazE_CQNcOJ4YT-32" value="" style="endArrow=none;html=1;" edge="1" parent="1">
          <mxGeometry width="50" height="50" relative="1" as="geometry">
            <mxPoint x="70" y="460" as="sourcePoint" />
            <mxPoint x="870" y="460" as="targetPoint" />
          </mxGeometry>
        </mxCell>
        <mxCell id="JTh4NQwazE_CQNcOJ4YT-33" value="" style="endArrow=none;html=1;" edge="1" parent="1">
          <mxGeometry width="50" height="50" relative="1" as="geometry">
            <mxPoint x="70" y="760" as="sourcePoint" />
            <mxPoint x="870" y="760" as="targetPoint" />
          </mxGeometry>
        </mxCell>
        <mxCell id="JTh4NQwazE_CQNcOJ4YT-36" value="PauseRecordPage" style="rounded=1;whiteSpace=wrap;html=1;shadow=0;labelBackgroundColor=none;strokeWidth=1;fontFamily=Verdana;fontSize=8;align=center;" vertex="1" parent="1">
          <mxGeometry x="750" y="810" width="100" height="60" as="geometry" />
        </mxCell>
        <mxCell id="JTh4NQwazE_CQNcOJ4YT-37" value="暂停录制" style="rounded=1;whiteSpace=wrap;html=1;shadow=0;labelBackgroundColor=none;strokeWidth=1;fontFamily=Verdana;fontSize=8;align=center;" vertex="1" parent="1">
          <mxGeometry x="90" y="810" width="100" height="60" as="geometry" />
        </mxCell>
        <mxCell id="JTh4NQwazE_CQNcOJ4YT-38" style="edgeStyle=orthogonalEdgeStyle;rounded=1;html=1;labelBackgroundColor=none;startArrow=none;startFill=0;startSize=5;endArrow=classicThin;endFill=1;endSize=5;jettySize=auto;orthogonalLoop=1;strokeWidth=1;fontFamily=Verdana;fontSize=8" edge="1" parent="1" source="JTh4NQwazE_CQNcOJ4YT-37" target="JTh4NQwazE_CQNcOJ4YT-39">
          <mxGeometry relative="1" as="geometry" />
        </mxCell>
        <mxCell id="JTh4NQwazE_CQNcOJ4YT-39" value="PauseRecordTask" style="rounded=1;whiteSpace=wrap;html=1;shadow=0;labelBackgroundColor=none;strokeWidth=1;fontFamily=Verdana;fontSize=8;align=center;" vertex="1" parent="1">
          <mxGeometry x="260" y="810" width="100" height="60" as="geometry" />
        </mxCell>
        <mxCell id="JTh4NQwazE_CQNcOJ4YT-40" value="" style="edgeStyle=orthogonalEdgeStyle;rounded=0;orthogonalLoop=1;jettySize=auto;html=1;" edge="1" parent="1" source="JTh4NQwazE_CQNcOJ4YT-41" target="JTh4NQwazE_CQNcOJ4YT-44">
          <mxGeometry relative="1" as="geometry" />
        </mxCell>
        <mxCell id="JTh4NQwazE_CQNcOJ4YT-41" value="SelectTask" style="rounded=1;whiteSpace=wrap;html=1;shadow=0;labelBackgroundColor=none;strokeWidth=1;fontFamily=Verdana;fontSize=8;align=center;" vertex="1" parent="1">
          <mxGeometry x="420" y="810" width="100" height="60" as="geometry" />
        </mxCell>
        <mxCell id="JTh4NQwazE_CQNcOJ4YT-42" value="UpdateTask" style="rounded=1;whiteSpace=wrap;html=1;shadow=0;labelBackgroundColor=none;strokeWidth=1;fontFamily=Verdana;fontSize=8;align=center;" vertex="1" parent="1">
          <mxGeometry x="420" y="1010" width="100" height="60" as="geometry" />
        </mxCell>
        <mxCell id="JTh4NQwazE_CQNcOJ4YT-43" value="" style="edgeStyle=orthogonalEdgeStyle;rounded=0;orthogonalLoop=1;jettySize=auto;html=1;" edge="1" parent="1" source="JTh4NQwazE_CQNcOJ4YT-44" target="JTh4NQwazE_CQNcOJ4YT-36">
          <mxGeometry relative="1" as="geometry" />
        </mxCell>
        <mxCell id="JTh4NQwazE_CQNcOJ4YT-44" value="Eci-Eip" style="rounded=1;whiteSpace=wrap;html=1;shadow=0;labelBackgroundColor=none;strokeWidth=1;fontFamily=Verdana;fontSize=8;align=center;" vertex="1" parent="1">
          <mxGeometry x="580" y="810" width="100" height="60" as="geometry" />
        </mxCell>
        <mxCell id="JTh4NQwazE_CQNcOJ4YT-45" value="" style="edgeStyle=orthogonalEdgeStyle;rounded=0;orthogonalLoop=1;jettySize=auto;html=1;" edge="1" parent="1" source="JTh4NQwazE_CQNcOJ4YT-39" target="JTh4NQwazE_CQNcOJ4YT-41">
          <mxGeometry relative="1" as="geometry" />
        </mxCell>
        <mxCell id="JTh4NQwazE_CQNcOJ4YT-46" value="" style="edgeStyle=orthogonalEdgeStyle;rounded=0;orthogonalLoop=1;jettySize=auto;html=1;entryX=0;entryY=0.5;entryDx=0;entryDy=0;" edge="1" parent="1" source="JTh4NQwazE_CQNcOJ4YT-47" target="JTh4NQwazE_CQNcOJ4YT-42">
          <mxGeometry relative="1" as="geometry">
            <mxPoint x="310" y="1069" as="targetPoint" />
            <Array as="points">
              <mxPoint x="310" y="1040" />
            </Array>
          </mxGeometry>
        </mxCell>
        <mxCell id="JTh4NQwazE_CQNcOJ4YT-47" value="UpdateRecordTask" style="rounded=1;whiteSpace=wrap;html=1;shadow=0;labelBackgroundColor=none;strokeWidth=1;fontFamily=Verdana;fontSize=8;align=center;" vertex="1" parent="1">
          <mxGeometry x="260" y="929" width="100" height="60" as="geometry" />
        </mxCell>
        <mxCell id="JTh4NQwazE_CQNcOJ4YT-48" value="" style="edgeStyle=orthogonalEdgeStyle;rounded=0;orthogonalLoop=1;jettySize=auto;html=1;entryX=1;entryY=0.5;entryDx=0;entryDy=0;" edge="1" parent="1" source="JTh4NQwazE_CQNcOJ4YT-36" target="JTh4NQwazE_CQNcOJ4YT-47">
          <mxGeometry relative="1" as="geometry">
            <Array as="points">
              <mxPoint x="800" y="959" />
            </Array>
          </mxGeometry>
        </mxCell>
        <mxCell id="JTh4NQwazE_CQNcOJ4YT-49" value="" style="endArrow=none;html=1;" edge="1" parent="1">
          <mxGeometry width="50" height="50" relative="1" as="geometry">
            <mxPoint x="70" y="1100" as="sourcePoint" />
            <mxPoint x="870" y="1100" as="targetPoint" />
          </mxGeometry>
        </mxCell>
        <mxCell id="JTh4NQwazE_CQNcOJ4YT-50" value="ResumeRecordPage" style="rounded=1;whiteSpace=wrap;html=1;shadow=0;labelBackgroundColor=none;strokeWidth=1;fontFamily=Verdana;fontSize=8;align=center;" vertex="1" parent="1">
          <mxGeometry x="750" y="1140" width="100" height="60" as="geometry" />
        </mxCell>
        <mxCell id="JTh4NQwazE_CQNcOJ4YT-51" value="恢复录制" style="rounded=1;whiteSpace=wrap;html=1;shadow=0;labelBackgroundColor=none;strokeWidth=1;fontFamily=Verdana;fontSize=8;align=center;" vertex="1" parent="1">
          <mxGeometry x="90" y="1140" width="100" height="60" as="geometry" />
        </mxCell>
        <mxCell id="JTh4NQwazE_CQNcOJ4YT-52" style="edgeStyle=orthogonalEdgeStyle;rounded=1;html=1;labelBackgroundColor=none;startArrow=none;startFill=0;startSize=5;endArrow=classicThin;endFill=1;endSize=5;jettySize=auto;orthogonalLoop=1;strokeWidth=1;fontFamily=Verdana;fontSize=8" edge="1" parent="1" source="JTh4NQwazE_CQNcOJ4YT-51" target="JTh4NQwazE_CQNcOJ4YT-53">
          <mxGeometry relative="1" as="geometry" />
        </mxCell>
        <mxCell id="JTh4NQwazE_CQNcOJ4YT-53" value="ResumeRecordTask" style="rounded=1;whiteSpace=wrap;html=1;shadow=0;labelBackgroundColor=none;strokeWidth=1;fontFamily=Verdana;fontSize=8;align=center;" vertex="1" parent="1">
          <mxGeometry x="260" y="1140" width="100" height="60" as="geometry" />
        </mxCell>
        <mxCell id="JTh4NQwazE_CQNcOJ4YT-54" value="" style="edgeStyle=orthogonalEdgeStyle;rounded=0;orthogonalLoop=1;jettySize=auto;html=1;" edge="1" parent="1" source="JTh4NQwazE_CQNcOJ4YT-55" target="JTh4NQwazE_CQNcOJ4YT-58">
          <mxGeometry relative="1" as="geometry" />
        </mxCell>
        <mxCell id="JTh4NQwazE_CQNcOJ4YT-55" value="SelectTask" style="rounded=1;whiteSpace=wrap;html=1;shadow=0;labelBackgroundColor=none;strokeWidth=1;fontFamily=Verdana;fontSize=8;align=center;" vertex="1" parent="1">
          <mxGeometry x="420" y="1140" width="100" height="60" as="geometry" />
        </mxCell>
        <mxCell id="JTh4NQwazE_CQNcOJ4YT-56" value="UpdateTask" style="rounded=1;whiteSpace=wrap;html=1;shadow=0;labelBackgroundColor=none;strokeWidth=1;fontFamily=Verdana;fontSize=8;align=center;" vertex="1" parent="1">
          <mxGeometry x="420" y="1340" width="100" height="60" as="geometry" />
        </mxCell>
        <mxCell id="JTh4NQwazE_CQNcOJ4YT-57" value="" style="edgeStyle=orthogonalEdgeStyle;rounded=0;orthogonalLoop=1;jettySize=auto;html=1;" edge="1" parent="1" source="JTh4NQwazE_CQNcOJ4YT-58" target="JTh4NQwazE_CQNcOJ4YT-50">
          <mxGeometry relative="1" as="geometry" />
        </mxCell>
        <mxCell id="JTh4NQwazE_CQNcOJ4YT-58" value="Eci-Eip" style="rounded=1;whiteSpace=wrap;html=1;shadow=0;labelBackgroundColor=none;strokeWidth=1;fontFamily=Verdana;fontSize=8;align=center;" vertex="1" parent="1">
          <mxGeometry x="580" y="1140" width="100" height="60" as="geometry" />
        </mxCell>
        <mxCell id="JTh4NQwazE_CQNcOJ4YT-59" value="" style="edgeStyle=orthogonalEdgeStyle;rounded=0;orthogonalLoop=1;jettySize=auto;html=1;" edge="1" parent="1" source="JTh4NQwazE_CQNcOJ4YT-53" target="JTh4NQwazE_CQNcOJ4YT-55">
          <mxGeometry relative="1" as="geometry" />
        </mxCell>
        <mxCell id="JTh4NQwazE_CQNcOJ4YT-60" value="" style="edgeStyle=orthogonalEdgeStyle;rounded=0;orthogonalLoop=1;jettySize=auto;html=1;entryX=0;entryY=0.5;entryDx=0;entryDy=0;" edge="1" parent="1" source="JTh4NQwazE_CQNcOJ4YT-61" target="JTh4NQwazE_CQNcOJ4YT-56">
          <mxGeometry relative="1" as="geometry">
            <mxPoint x="310" y="1399" as="targetPoint" />
            <Array as="points">
              <mxPoint x="310" y="1370" />
            </Array>
          </mxGeometry>
        </mxCell>
        <mxCell id="JTh4NQwazE_CQNcOJ4YT-61" value="UpdateRecordTask" style="rounded=1;whiteSpace=wrap;html=1;shadow=0;labelBackgroundColor=none;strokeWidth=1;fontFamily=Verdana;fontSize=8;align=center;" vertex="1" parent="1">
          <mxGeometry x="260" y="1259" width="100" height="60" as="geometry" />
        </mxCell>
        <mxCell id="JTh4NQwazE_CQNcOJ4YT-62" value="" style="edgeStyle=orthogonalEdgeStyle;rounded=0;orthogonalLoop=1;jettySize=auto;html=1;entryX=1;entryY=0.5;entryDx=0;entryDy=0;" edge="1" parent="1" source="JTh4NQwazE_CQNcOJ4YT-50" target="JTh4NQwazE_CQNcOJ4YT-61">
          <mxGeometry relative="1" as="geometry">
            <Array as="points">
              <mxPoint x="800" y="1289" />
            </Array>
          </mxGeometry>
        </mxCell>
        <mxCell id="JTh4NQwazE_CQNcOJ4YT-68" value="" style="edgeStyle=orthogonalEdgeStyle;rounded=0;orthogonalLoop=1;jettySize=auto;html=1;entryX=0.5;entryY=0;entryDx=0;entryDy=0;" edge="1" parent="1" source="JTh4NQwazE_CQNcOJ4YT-65" target="JTh4NQwazE_CQNcOJ4YT-10">
          <mxGeometry relative="1" as="geometry">
            <mxPoint x="400" y="270" as="targetPoint" />
            <Array as="points">
              <mxPoint x="630" y="340" />
              <mxPoint x="310" y="340" />
            </Array>
          </mxGeometry>
        </mxCell>
        <mxCell id="JTh4NQwazE_CQNcOJ4YT-100" value="RestartRecordPage" style="rounded=1;whiteSpace=wrap;html=1;shadow=0;labelBackgroundColor=none;strokeWidth=1;fontFamily=Verdana;fontSize=8;align=center;" vertex="1" parent="1">
          <mxGeometry x="750" y="1480" width="100" height="60" as="geometry" />
        </mxCell>
        <mxCell id="JTh4NQwazE_CQNcOJ4YT-101" value="重新录制" style="rounded=1;whiteSpace=wrap;html=1;shadow=0;labelBackgroundColor=none;strokeWidth=1;fontFamily=Verdana;fontSize=8;align=center;" vertex="1" parent="1">
          <mxGeometry x="90" y="1480" width="100" height="60" as="geometry" />
        </mxCell>
        <mxCell id="JTh4NQwazE_CQNcOJ4YT-102" style="edgeStyle=orthogonalEdgeStyle;rounded=1;html=1;labelBackgroundColor=none;startArrow=none;startFill=0;startSize=5;endArrow=classicThin;endFill=1;endSize=5;jettySize=auto;orthogonalLoop=1;strokeWidth=1;fontFamily=Verdana;fontSize=8" edge="1" parent="1" source="JTh4NQwazE_CQNcOJ4YT-101" target="JTh4NQwazE_CQNcOJ4YT-103">
          <mxGeometry relative="1" as="geometry" />
        </mxCell>
        <mxCell id="JTh4NQwazE_CQNcOJ4YT-103" value="RestartRecordTask" style="rounded=1;whiteSpace=wrap;html=1;shadow=0;labelBackgroundColor=none;strokeWidth=1;fontFamily=Verdana;fontSize=8;align=center;" vertex="1" parent="1">
          <mxGeometry x="260" y="1480" width="100" height="60" as="geometry" />
        </mxCell>
        <mxCell id="JTh4NQwazE_CQNcOJ4YT-104" value="" style="edgeStyle=orthogonalEdgeStyle;rounded=0;orthogonalLoop=1;jettySize=auto;html=1;" edge="1" parent="1" source="JTh4NQwazE_CQNcOJ4YT-105" target="JTh4NQwazE_CQNcOJ4YT-108">
          <mxGeometry relative="1" as="geometry" />
        </mxCell>
        <mxCell id="JTh4NQwazE_CQNcOJ4YT-105" value="SelectTask" style="rounded=1;whiteSpace=wrap;html=1;shadow=0;labelBackgroundColor=none;strokeWidth=1;fontFamily=Verdana;fontSize=8;align=center;" vertex="1" parent="1">
          <mxGeometry x="420" y="1480" width="100" height="60" as="geometry" />
        </mxCell>
        <mxCell id="JTh4NQwazE_CQNcOJ4YT-106" value="UpdateTask" style="rounded=1;whiteSpace=wrap;html=1;shadow=0;labelBackgroundColor=none;strokeWidth=1;fontFamily=Verdana;fontSize=8;align=center;" vertex="1" parent="1">
          <mxGeometry x="420" y="1680" width="100" height="60" as="geometry" />
        </mxCell>
        <mxCell id="JTh4NQwazE_CQNcOJ4YT-107" value="" style="edgeStyle=orthogonalEdgeStyle;rounded=0;orthogonalLoop=1;jettySize=auto;html=1;" edge="1" parent="1" source="JTh4NQwazE_CQNcOJ4YT-108" target="JTh4NQwazE_CQNcOJ4YT-100">
          <mxGeometry relative="1" as="geometry" />
        </mxCell>
        <mxCell id="JTh4NQwazE_CQNcOJ4YT-108" value="Eci-Eip" style="rounded=1;whiteSpace=wrap;html=1;shadow=0;labelBackgroundColor=none;strokeWidth=1;fontFamily=Verdana;fontSize=8;align=center;" vertex="1" parent="1">
          <mxGeometry x="580" y="1480" width="100" height="60" as="geometry" />
        </mxCell>
        <mxCell id="JTh4NQwazE_CQNcOJ4YT-109" value="" style="edgeStyle=orthogonalEdgeStyle;rounded=0;orthogonalLoop=1;jettySize=auto;html=1;" edge="1" parent="1" source="JTh4NQwazE_CQNcOJ4YT-103" target="JTh4NQwazE_CQNcOJ4YT-105">
          <mxGeometry relative="1" as="geometry" />
        </mxCell>
        <mxCell id="JTh4NQwazE_CQNcOJ4YT-110" value="" style="edgeStyle=orthogonalEdgeStyle;rounded=0;orthogonalLoop=1;jettySize=auto;html=1;entryX=0;entryY=0.5;entryDx=0;entryDy=0;" edge="1" parent="1" source="JTh4NQwazE_CQNcOJ4YT-111" target="JTh4NQwazE_CQNcOJ4YT-106">
          <mxGeometry relative="1" as="geometry">
            <mxPoint x="310" y="1739" as="targetPoint" />
            <Array as="points">
              <mxPoint x="310" y="1710" />
            </Array>
          </mxGeometry>
        </mxCell>
        <mxCell id="JTh4NQwazE_CQNcOJ4YT-111" value="UpdateRecordTask" style="rounded=1;whiteSpace=wrap;html=1;shadow=0;labelBackgroundColor=none;strokeWidth=1;fontFamily=Verdana;fontSize=8;align=center;" vertex="1" parent="1">
          <mxGeometry x="260" y="1599" width="100" height="60" as="geometry" />
        </mxCell>
        <mxCell id="JTh4NQwazE_CQNcOJ4YT-112" value="" style="edgeStyle=orthogonalEdgeStyle;rounded=0;orthogonalLoop=1;jettySize=auto;html=1;entryX=1;entryY=0.5;entryDx=0;entryDy=0;" edge="1" parent="1" source="JTh4NQwazE_CQNcOJ4YT-100" target="JTh4NQwazE_CQNcOJ4YT-111">
          <mxGeometry relative="1" as="geometry">
            <Array as="points">
              <mxPoint x="800" y="1629" />
            </Array>
          </mxGeometry>
        </mxCell>
        <mxCell id="JTh4NQwazE_CQNcOJ4YT-113" value="" style="endArrow=none;html=1;" edge="1" parent="1">
          <mxGeometry width="50" height="50" relative="1" as="geometry">
            <mxPoint x="70" y="1450" as="sourcePoint" />
            <mxPoint x="870" y="1450" as="targetPoint" />
          </mxGeometry>
        </mxCell>
      </root>
    </mxGraphModel>
  </diagram>
</mxfile>
